<svg id="Capa_1" enable-background="new 0 0 511.951 511.951" height="512" viewBox="0 0 511.951 511.951" width="512" xmlns="http://www.w3.org/2000/svg"><path d="m439.041 30.754c-19.832-19.832-46.199-30.754-74.246-30.754s-54.415 10.922-74.227 30.734l-140.431 139.913c-29.559 29.559-37.771 72.501-24.646 109.501l-52.582 52.605c-40.939 40.94-40.939 107.553 0 148.493 20.47 20.469 47.357 30.704 74.246 30.704 26.888 0 53.777-10.235 74.248-30.706l119.653-119.679c29.549-29.55 37.766-72.474 24.658-109.466l73.327-72.854c40.94-40.938 40.94-107.552 0-148.491zm-119.199 309.6-119.653 119.679c-29.243 29.242-76.824 29.242-106.066 0s-29.242-76.823.002-106.068l46.169-46.189c2.967 3.962 6.243 7.764 9.843 11.364 3.602 3.602 7.406 6.88 11.371 9.848l-46.172 46.192c-17.545 17.545-17.546 46.094 0 63.64 8.499 8.499 19.8 13.18 31.82 13.18s23.321-4.681 31.821-13.181l119.652-119.679c8.5-8.499 13.181-19.8 13.181-31.82s-4.681-23.321-13.181-31.82c-17.544-17.545-46.094-17.545-63.639 0-2.833 2.833-6.6 4.393-10.607 4.393-4.006 0-7.773-1.56-10.606-4.393-5.848-5.848-5.848-15.365-.02-21.194l.022-.022c29.242-29.241 76.822-29.24 106.064.002 29.242 29.243 29.242 76.824-.001 106.068zm-95.459 9.49c.38 0 .76-.009 1.14-.014l-67.761 67.776c-2.833 2.833-6.6 4.394-10.607 4.394s-7.773-1.56-10.606-4.393c-5.849-5.849-5.849-15.365.002-21.216l52.581-52.604c11.375 4.035 23.312 6.057 35.251 6.057zm41.493-167.464 88.313-87.987c2.833-2.833 6.6-4.394 10.607-4.394 4.006 0 7.773 1.56 10.606 4.394 2.833 2.833 4.394 6.6 4.394 10.606s-1.561 7.773-4.359 10.572l-73.34 72.867c-11.685-4.147-23.96-6.166-36.221-6.058zm85.063 42.111c-2.977-3.981-6.267-7.801-9.883-11.417-3.586-3.586-7.372-6.85-11.317-9.808l66.877-66.446c8.5-8.499 13.181-19.8 13.181-31.82s-4.681-23.321-13.18-31.82c-8.5-8.5-19.8-13.18-31.82-13.18s-23.321 4.681-31.8 13.161l-140.433 139.912c-17.546 17.546-17.546 46.094 0 63.64 8.5 8.5 19.8 13.18 31.82 13.18s23.32-4.681 31.82-13.18c5.849-5.848 15.365-5.848 21.213 0 2.833 2.833 4.394 6.6 4.394 10.606s-1.561 7.773-4.395 10.608c-29.243 29.237-76.823 29.24-106.065-.001-29.242-29.242-29.242-76.823-.02-106.046l140.431-139.913c14.165-14.166 33-21.967 53.033-21.967s38.867 7.801 53.033 21.967c29.242 29.242 29.242 76.823.034 106.032z"/></svg>