<?xml version="1.0" encoding="UTF-8" standalone="no"?>
<svg
   id="Capa_1"
   enable-background="new 0 0 511.951 511.951"
   height="512"
   viewBox="0 0 511.951 511.951"
   width="512"
   version="1.1"
   sodipodi:docname="link1.svg"
   inkscape:version="1.1 (c4e8f9e, 2021-05-24)"
   xmlns:inkscape="http://www.inkscape.org/namespaces/inkscape"
   xmlns:sodipodi="http://sodipodi.sourceforge.net/DTD/sodipodi-0.dtd"
   xmlns="http://www.w3.org/2000/svg"
   xmlns:svg="http://www.w3.org/2000/svg">
  <defs
     id="defs829" />
  <sodipodi:namedview
     id="namedview827"
     pagecolor="#ffffff"
     bordercolor="#666666"
     borderopacity="1.0"
     inkscape:pageshadow="2"
     inkscape:pageopacity="0.0"
     inkscape:pagecheckerboard="0"
     showgrid="false"
     inkscape:zoom="1.7558594"
     inkscape:cx="252.58287"
     inkscape:cy="255.71524"
     inkscape:window-width="2560"
     inkscape:window-height="1440"
     inkscape:window-x="0"
     inkscape:window-y="0"
     inkscape:window-maximized="0"
     inkscape:current-layer="Capa_1" />
  <rect
     style="fill:#ffffff;fill-opacity:1;stroke:none;stroke-width:11.6016"
     id="rect933"
     width="434.50348"
     height="521.45819"
     x="38.723759"
     y="-4.7535954" />
  <path
     d="m 439.04113,30.7545 c -19.832,-19.832 -46.19901,-30.754 -74.246,-30.754 -28.047,0 -54.415,10.922 -74.22701,30.734 l -140.43099,139.913 c -29.559,29.559 -37.771,72.501 -24.646,109.501 l -52.582008,52.605 c -40.939,40.94 -40.939,107.553 0,148.493 20.47,20.469 47.357008,30.704 74.246008,30.704 26.888,0 53.777,-10.235 74.248,-30.706 l 119.65299,-119.679 c 29.549,-29.55 37.76601,-72.474 24.65801,-109.466 l 73.327,-72.854 c 40.94,-40.938 40.94,-107.552 0,-148.491 z m -119.19901,309.6 -119.65299,119.679 c -29.243,29.242 -76.824,29.242 -106.066007,0 -29.242,-29.242 -29.242,-76.823 0.002,-106.068 l 46.168997,-46.189 c 2.96701,3.962 6.243,7.764 9.843,11.364 3.602,3.602 7.406,6.88 11.371,9.848 l -46.17199,46.192 c -17.545008,17.545 -17.546008,46.094 0,63.64 8.499,8.499 19.8,13.18 31.81999,13.18 12.02,0 23.321,-4.681 31.821,-13.181 l 119.652,-119.679 c 8.5,-8.499 13.181,-19.8 13.181,-31.82 0,-12.02 -4.681,-23.321 -13.181,-31.82 -17.544,-17.545 -46.09399,-17.545 -63.639,0 -2.833,2.833 -6.6,4.393 -10.607,4.393 -4.006,0 -7.773,-1.56 -10.606,-4.393 -5.848,-5.848 -5.848,-15.365 -0.02,-21.194 l 0.022,-0.022 c 29.242,-29.241 76.822,-29.24 106.064,0.002 29.242,29.243 29.242,76.824 -10e-4,106.068 z m -95.45899,9.49 c 0.38,0 0.76,-0.009 1.14,-0.014 l -67.761,67.776 c -2.833,2.833 -6.6,4.394 -10.607,4.394 -4.007,0 -7.773,-1.56 -10.606,-4.393 -5.849,-5.849 -5.849,-15.365 0.002,-21.216 l 52.581,-52.604 c 11.375,4.035 23.312,6.057 35.251,6.057 z m 41.49299,-167.464 88.313,-87.987 c 2.83301,-2.833 6.60001,-4.394 10.607,-4.394 4.006,0 7.773,1.56 10.606,4.394 2.833,2.833 4.394,6.6 4.394,10.606 0,4.006 -1.561,7.773 -4.359,10.572 l -73.34,72.867 c -11.685,-4.147 -23.95999,-6.166 -36.221,-6.058 z m 85.063,42.111 c -2.97699,-3.981 -6.267,-7.801 -9.883,-11.417 -3.586,-3.586 -7.372,-6.85 -11.317,-9.808 l 66.877,-66.446 c 8.5,-8.499 13.181,-19.8 13.181,-31.82 0,-12.02 -4.681,-23.321 -13.18,-31.82 -8.5,-8.5 -19.8,-13.18 -31.82,-13.18 -12.02,0 -23.321,4.681 -31.8,13.161 l -140.43299,139.912 c -17.546,17.546 -17.546,46.094 0,63.64 8.5,8.5 19.8,13.18 31.81999,13.18 12.02,0 23.32,-4.681 31.82,-13.18 5.849,-5.848 15.365,-5.848 21.213,0 2.83301,2.833 4.394,6.6 4.394,10.606 0,4.006 -1.56099,7.773 -4.39499,10.608 -29.243,29.237 -76.823,29.24 -106.065,-0.001 -29.242,-29.242 -29.242,-76.823 -0.02,-106.046 l 140.431,-139.913 c 14.165,-14.166 33,-21.967 53.033,-21.967 20.033,0 38.867,7.801 53.033,21.967 29.242,29.242 29.242,76.823 0.034,106.032 z"
     id="path824" />
</svg>
